<svg xmlns="http://www.w3.org/2000/svg" width="600" height="600"><rect width="600" height="600" fill="#071B3A"/><g fill="#fff" opacity=".65"><circle cx="0" cy="0" r="1"/><circle cx="97" cy="149" r="2"/><circle cx="194" cy="298" r="1"/><circle cx="291" cy="447" r="2"/><circle cx="388" cy="596" r="1"/><circle cx="485" cy="145" r="2"/><circle cx="582" cy="294" r="1"/><circle cx="79" cy="443" r="2"/><circle cx="176" cy="592" r="1"/><circle cx="273" cy="141" r="2"/><circle cx="370" cy="290" r="1"/><circle cx="467" cy="439" r="2"/><circle cx="564" cy="588" r="1"/><circle cx="61" cy="137" r="2"/><circle cx="158" cy="286" r="1"/><circle cx="255" cy="435" r="2"/><circle cx="352" cy="584" r="1"/><circle cx="449" cy="133" r="2"/><circle cx="546" cy="282" r="1"/><circle cx="43" cy="431" r="2"/><circle cx="140" cy="580" r="1"/><circle cx="237" cy="129" r="2"/><circle cx="334" cy="278" r="1"/><circle cx="431" cy="427" r="2"/><circle cx="528" cy="576" r="1"/><circle cx="25" cy="125" r="2"/><circle cx="122" cy="274" r="1"/><circle cx="219" cy="423" r="2"/><circle cx="316" cy="572" r="1"/><circle cx="413" cy="121" r="2"/><circle cx="510" cy="270" r="1"/><circle cx="7" cy="419" r="2"/><circle cx="104" cy="568" r="1"/><circle cx="201" cy="117" r="2"/><circle cx="298" cy="266" r="1"/><circle cx="395" cy="415" r="2"/><circle cx="492" cy="564" r="1"/><circle cx="589" cy="113" r="2"/><circle cx="86" cy="262" r="1"/><circle cx="183" cy="411" r="2"/><circle cx="280" cy="560" r="1"/><circle cx="377" cy="109" r="2"/><circle cx="474" cy="258" r="1"/><circle cx="571" cy="407" r="2"/><circle cx="68" cy="556" r="1"/><circle cx="165" cy="105" r="2"/><circle cx="262" cy="254" r="1"/><circle cx="359" cy="403" r="2"/><circle cx="456" cy="552" r="1"/><circle cx="553" cy="101" r="2"/><circle cx="50" cy="250" r="1"/><circle cx="147" cy="399" r="2"/><circle cx="244" cy="548" r="1"/><circle cx="341" cy="97" r="2"/><circle cx="438" cy="246" r="1"/><circle cx="535" cy="395" r="2"/><circle cx="32" cy="544" r="1"/><circle cx="129" cy="93" r="2"/><circle cx="226" cy="242" r="1"/><circle cx="323" cy="391" r="2"/></g></svg>