<svg xmlns="http://www.w3.org/2000/svg" viewBox="380 0 840 900">
    <defs>
      <linearGradient id="sky" x1="0" y1="0" x2="1" y2="1"><stop stop-color="#071B3A"/><stop offset=".55" stop-color="#1769E0"/><stop offset="1" stop-color="#EEF2F7"/></linearGradient>
      <radialGradient id="sun"><stop stop-color="#FFFFFF"/><stop offset=".3" stop-color="#F3C14A" stop-opacity=".75"/><stop offset="1" stop-color="#F3C14A" stop-opacity="0"/></radialGradient>
    </defs>
    <rect width="1600" height="900" fill="url(#sky)"/>
    <circle cx="0" cy="0" r="1" fill="#FFFFFF" opacity="0.20"/><circle cx="137" cy="83" r="2" fill="#FFFFFF" opacity="0.28"/><circle cx="274" cy="166" r="3" fill="#FFFFFF" opacity="0.36"/><circle cx="411" cy="249" r="1" fill="#FFFFFF" opacity="0.44"/><circle cx="548" cy="332" r="2" fill="#FFFFFF" opacity="0.52"/><circle cx="685" cy="415" r="3" fill="#FFFFFF" opacity="0.20"/><circle cx="822" cy="498" r="1" fill="#FFFFFF" opacity="0.28"/><circle cx="959" cy="581" r="2" fill="#FFFFFF" opacity="0.36"/><circle cx="1096" cy="664" r="3" fill="#FFFFFF" opacity="0.44"/><circle cx="1233" cy="747" r="1" fill="#FFFFFF" opacity="0.52"/><circle cx="1370" cy="830" r="2" fill="#FFFFFF" opacity="0.20"/><circle cx="1507" cy="13" r="3" fill="#FFFFFF" opacity="0.28"/><circle cx="44" cy="96" r="1" fill="#FFFFFF" opacity="0.36"/><circle cx="181" cy="179" r="2" fill="#FFFFFF" opacity="0.44"/><circle cx="318" cy="262" r="3" fill="#FFFFFF" opacity="0.52"/><circle cx="455" cy="345" r="1" fill="#FFFFFF" opacity="0.20"/><circle cx="592" cy="428" r="2" fill="#FFFFFF" opacity="0.28"/><circle cx="729" cy="511" r="3" fill="#FFFFFF" opacity="0.36"/><circle cx="866" cy="594" r="1" fill="#FFFFFF" opacity="0.44"/><circle cx="1003" cy="677" r="2" fill="#FFFFFF" opacity="0.52"/><circle cx="1140" cy="760" r="3" fill="#FFFFFF" opacity="0.20"/><circle cx="1277" cy="843" r="1" fill="#FFFFFF" opacity="0.28"/><circle cx="1414" cy="26" r="2" fill="#FFFFFF" opacity="0.36"/><circle cx="1551" cy="109" r="3" fill="#FFFFFF" opacity="0.44"/><circle cx="88" cy="192" r="1" fill="#FFFFFF" opacity="0.52"/><circle cx="225" cy="275" r="2" fill="#FFFFFF" opacity="0.20"/><circle cx="362" cy="358" r="3" fill="#FFFFFF" opacity="0.28"/><circle cx="499" cy="441" r="1" fill="#FFFFFF" opacity="0.36"/><circle cx="636" cy="524" r="2" fill="#FFFFFF" opacity="0.44"/><circle cx="773" cy="607" r="3" fill="#FFFFFF" opacity="0.52"/><circle cx="910" cy="690" r="1" fill="#FFFFFF" opacity="0.20"/><circle cx="1047" cy="773" r="2" fill="#FFFFFF" opacity="0.28"/><circle cx="1184" cy="856" r="3" fill="#FFFFFF" opacity="0.36"/><circle cx="1321" cy="39" r="1" fill="#FFFFFF" opacity="0.44"/><circle cx="1458" cy="122" r="2" fill="#FFFFFF" opacity="0.52"/><circle cx="1595" cy="205" r="3" fill="#FFFFFF" opacity="0.20"/><circle cx="132" cy="288" r="1" fill="#FFFFFF" opacity="0.28"/><circle cx="269" cy="371" r="2" fill="#FFFFFF" opacity="0.36"/><circle cx="406" cy="454" r="3" fill="#FFFFFF" opacity="0.44"/><circle cx="543" cy="537" r="1" fill="#FFFFFF" opacity="0.52"/><circle cx="680" cy="620" r="2" fill="#FFFFFF" opacity="0.20"/><circle cx="817" cy="703" r="3" fill="#FFFFFF" opacity="0.28"/><circle cx="954" cy="786" r="1" fill="#FFFFFF" opacity="0.36"/><circle cx="1091" cy="869" r="2" fill="#FFFFFF" opacity="0.44"/><circle cx="1228" cy="52" r="3" fill="#FFFFFF" opacity="0.52"/>
    <circle cx="1120" cy="196" r="180" fill="url(#sun)"/>
    <path d="M0 690 Q300 610 580 690 T1120 650 T1600 690 V900 H0Z" fill="#FFFFFF" opacity=".18"/>
    <path d="M180 720 L215 370 L250 720 Z" fill="#0B2C5F" opacity="0.55"/><path d="M290 720 L325 390 L360 720 Z" fill="#0B2C5F" opacity="0.65"/><path d="M400 720 L435 410 L470 720 Z" fill="#0B2C5F" opacity="0.45"/><path d="M510 720 L545 300 L580 720 Z" fill="#0B2C5F" opacity="0.55"/><path d="M620 720 L655 320 L690 720 Z" fill="#0B2C5F" opacity="0.65"/><path d="M730 720 L765 340 L800 720 Z" fill="#0B2C5F" opacity="0.75"/><path d="M840 720 L875 360 L910 720 Z" fill="#0B2C5F" opacity="0.45"/><path d="M950 720 L985 380 L1020 720 Z" fill="#0B2C5F" opacity="0.55"/><path d="M1060 720 L1095 400 L1130 720 Z" fill="#0B2C5F" opacity="0.65"/><path d="M1170 720 L1205 420 L1240 720 Z" fill="#0B2C5F" opacity="0.75"/><path d="M1280 720 L1315 310 L1350 720 Z" fill="#0B2C5F" opacity="0.45"/><path d="M1390 720 L1425 330 L1460 720 Z" fill="#0B2C5F" opacity="0.55"/><path d="M980 180 l70 -18 40 18 -40 18z" fill="#DDE4EE" stroke="#F3C14A" stroke-width="3"/><path d="M1250 270 l70 -18 40 18 -40 18z" fill="#DDE4EE" stroke="#F3C14A" stroke-width="3"/><path d="M1110 360 l70 -18 40 18 -40 18z" fill="#DDE4EE" stroke="#F3C14A" stroke-width="3"/>
    <path d="M0 760 C280 680 470 830 720 735 S1220 680 1600 760V900H0Z" fill="#071B3A"/>
    <path d="M0 790 C360 720 580 845 900 760 S1330 720 1600 790" fill="none" stroke="#F3C14A" stroke-width="4" opacity=".7"/>
    </svg>