<svg xmlns="http://www.w3.org/2000/svg" viewBox="0 0 512 512" role="img"><rect width="512" height="512" fill="#FFFFFF"/><path d="M256 28 430 92v128c0 121-71 218-174 265C153 438 82 341 82 220V92z" fill="none" stroke="#071B3A" stroke-width="18"/><path d="M256 92c-27 47-42 89-42 127 0 48 20 86 42 116 22-30 42-68 42-116 0-38-15-80-42-127zM184 170c-28 20-47 49-57 85 33-4 64 7 89 31M328 170c28 20 47 49 57 85-33-4-64 7-89 31M256 116v244M210 360h92" fill="none" stroke="#071B3A" stroke-width="14" stroke-linecap="round"/><circle cx="256" cy="376" r="22" fill="#071B3A"/></svg>