<svg xmlns="http://www.w3.org/2000/svg" viewBox="0 0 512 512" role="img">
<g transform="translate(144 20) scale(.44)">
<defs>
 <linearGradient id="g" x1="0" y1="0" x2="1" y2="1"><stop stop-color="#1769E0"/><stop offset="1" stop-color="#071B3A"/></linearGradient>
 <linearGradient id="gold" x1="0" y1="0" x2="1" y2="1"><stop stop-color="#F3C14A"/><stop offset="1" stop-color="#C68A0A"/></linearGradient>
</defs>
<path d="M256 28 430 92v128c0 121-71 218-174 265C153 438 82 341 82 220V92z" fill="url(#g)" stroke="url(#gold)" stroke-width="18"/>
<path d="M256 92c-27 47-42 89-42 127 0 48 20 86 42 116 22-30 42-68 42-116 0-38-15-80-42-127z" fill="none" stroke="#F3C14A" stroke-width="16"/>
<path d="M184 170c-28 20-47 49-57 85 33-4 64 7 89 31M328 170c28 20 47 49 57 85-33-4-64 7-89 31" fill="none" stroke="#F3C14A" stroke-width="14" stroke-linecap="round"/>
<path d="M256 116v244M210 360h92" stroke="#F3C14A" stroke-width="14" stroke-linecap="round"/>
<circle cx="256" cy="376" r="22" fill="#F3C14A"/>
</g>
<text x="256" y="350" text-anchor="middle" fill="#071B3A" font-size="56" font-family="Georgia,serif" font-style="italic">Syndicate Union</text>
<text x="256" y="402" text-anchor="middle" fill="#C68A0A" font-size="18" letter-spacing="5" font-family="Arial,sans-serif">THE VOICE OF LIBERTY</text>
</svg>